<svg xmlns="http://www.w3.org/2000/svg" width="148" height="38" viewBox="0 0 148 38" fill="none"><g clip-path="url(#clip0_12776_258)"><path d="M61.2654 3.66064C61.5626 3.66064 61.725 3.84367 61.7008 4.14065L59.7278 21.5625C59.7036 21.8595 59.5447 21.9976 59.2476 21.9976H56.9982C56.7217 21.9976 56.5628 21.8595 56.4937 21.5867L54.1061 11.2268L51.6978 21.6108C51.6287 21.8629 51.4697 22.0011 51.1933 22.0011H48.899C48.6018 22.0011 48.4394 21.8629 48.4152 21.5659L46.5356 4.1441C46.5114 3.84712 46.6738 3.6641 46.9709 3.6641H49.1512C49.4276 3.6641 49.6108 3.82295 49.6315 4.09921L50.5264 14.8251H50.6404L52.9106 4.07504C52.9797 3.79878 53.1386 3.6641 53.415 3.6641H54.7902C55.0667 3.6641 55.2256 3.80223 55.2947 4.07504L57.5441 14.8251H57.6581L58.598 4.09921C58.6221 3.82295 58.8053 3.6641 59.0782 3.6641H61.2585L61.2654 3.66064Z" fill="white"></path><path d="M73.0786 21.9976C72.8713 21.9976 72.7572 21.8837 72.7123 21.6765L72.0696 18.3302H67.9855L67.367 21.6765C67.3221 21.8837 67.2081 21.9976 67.0007 21.9976H64.5475C64.2953 21.9976 64.1812 21.8595 64.2503 21.6074L68.0581 3.9818C68.103 3.75388 68.2412 3.66064 68.4485 3.66064H71.6377C71.845 3.66064 71.9833 3.75388 72.0282 3.9818L75.8359 21.6074C75.8808 21.8595 75.791 21.9976 75.5146 21.9976H73.082H73.0786ZM70.0276 7.67337L68.5591 15.6746H71.4961L70.0276 7.67337Z" fill="white"></path><path d="M89.6164 12.5563C89.6164 14.093 89.0429 15.1014 87.9406 15.5814L89.5231 21.5866C89.5922 21.8629 89.454 21.9976 89.2018 21.9976H86.8177C86.5896 21.9976 86.4721 21.8836 86.4272 21.6764L84.8896 15.8542H83.3071V21.6315C83.3071 21.8594 83.1689 21.9976 82.9408 21.9976H80.5567C80.3286 21.9976 80.1904 21.8594 80.1904 21.6315V4.03011C80.1904 3.80219 80.3286 3.66406 80.5567 3.66406H86.3132C88.4693 3.66406 89.6164 4.81055 89.6164 6.96541V12.5597V12.5563ZM85.5807 12.8291C86.1784 12.8291 86.4998 12.5079 86.4998 11.914V7.60427C86.4998 7.00685 86.1784 6.68569 85.5807 6.68569H83.3105V12.8291H85.5807Z" fill="white"></path><path d="M103.931 3.66064C104.276 3.66064 104.411 3.84367 104.342 4.16482L100.465 21.5867C100.396 21.8629 100.237 21.9976 99.9607 21.9976H97.6664C97.39 21.9976 97.231 21.8595 97.1619 21.5867L93.3093 4.16482C93.2402 3.84367 93.3784 3.66064 93.7239 3.66064H95.9042C96.1806 3.66064 96.3395 3.79878 96.4087 4.07159L98.817 16.3584L101.25 4.07159C101.319 3.79532 101.478 3.66064 101.754 3.66064H103.934H103.931Z" fill="white"></path><path d="M117.645 6.31964C117.645 6.54756 117.552 6.70986 117.279 6.70986H111.547V11.2958H115.928C116.156 11.2958 116.294 11.434 116.294 11.6861V13.9549C116.294 14.207 116.156 14.3451 115.928 14.3451H111.547V18.9759H117.279C117.555 18.9759 117.645 19.0899 117.645 19.342V21.635C117.645 21.8629 117.552 22.001 117.279 22.001H108.838C108.63 22.001 108.492 21.8629 108.492 21.635V4.03011C108.492 3.80219 108.63 3.66406 108.838 3.66406H117.279C117.555 3.66406 117.645 3.80219 117.645 4.03011V6.3231V6.31964Z" fill="white"></path><path d="M131.66 3.66064C131.888 3.66064 132.027 3.79878 132.027 4.02669V21.6316C132.027 21.8595 131.888 21.9976 131.66 21.9976H129.39C129.183 21.9976 129.045 21.9044 128.976 21.7006L125.465 11.914H125.351V21.6316C125.351 21.8595 125.237 21.9976 124.985 21.9976H122.601C122.373 21.9976 122.234 21.8595 122.234 21.6316V4.03015C122.234 3.80223 122.373 3.6641 122.601 3.6641H124.871C125.078 3.6641 125.216 3.75734 125.282 3.96108L128.768 13.7028H128.907V4.03015C128.907 3.80223 129.021 3.6641 129.273 3.6641H131.657L131.66 3.66064Z" fill="white"></path><path d="M145.235 21.9976C145.028 21.9976 144.914 21.8837 144.869 21.6765L144.226 18.3302H140.146L139.527 21.6765C139.482 21.8837 139.368 21.9976 139.161 21.9976H136.708C136.455 21.9976 136.341 21.8595 136.41 21.6074L140.218 3.9818C140.263 3.75388 140.401 3.66064 140.609 3.66064H143.798C144.005 3.66064 144.143 3.75388 144.188 3.9818L147.996 21.6074C148.041 21.8595 147.951 21.9976 147.675 21.9976H145.242H145.235ZM142.188 7.67337L140.719 15.6746H143.656L142.188 7.67337Z" fill="white"></path><path d="M22.559 32.2402H20.9385C20.669 32.2402 20.4824 32.4992 20.4824 32.8687V36.3324C20.4824 36.7019 20.669 36.9609 20.9385 36.9609H22.559C22.8286 36.9609 23.0151 36.7019 23.0151 36.3324V32.8687C23.0151 32.4992 22.8286 32.2402 22.559 32.2402Z" fill="white"></path><path d="M42.9867 34.0567L35.043 15.4227C34.9774 15.2639 34.815 15.1672 34.6457 15.1741C34.4729 15.1844 34.3278 15.2984 34.2794 15.4642L29.0516 32.703L23.0152 20.8513L21.8439 18.3304C21.799 18.2337 21.7022 18.1715 21.5951 18.1681C21.4914 18.1577 21.3912 18.2233 21.3429 18.32C21.3429 18.32 20.2095 20.5163 20.2061 20.5198L20.061 20.8064L19.3146 22.2533C19.3042 22.274 19.2973 22.2948 19.2904 22.3155L14.0004 32.703L8.77255 15.4642C8.72418 15.3018 8.5756 15.1844 8.4063 15.1741C8.23699 15.1637 8.07804 15.2639 8.00894 15.4227L0.0306971 34.105C-0.0245874 34.2293 -0.0107663 34.3744 0.0652499 34.4883C0.141266 34.6023 0.269111 34.6713 0.403867 34.6713H9.04898C9.27357 34.6713 9.4567 34.4883 9.4567 34.2639V32.8376C9.4567 32.6132 9.27357 32.4302 9.04898 32.4302H3.18191L8.0815 20.9411L13.1677 37.7102C13.216 37.8691 13.3543 37.9831 13.5201 37.9969C13.5339 37.9969 13.5443 37.9969 13.5547 37.9969C13.7067 37.9969 13.8484 37.9105 13.9175 37.7759L21.5156 22.8611L29.1138 37.7759C29.1829 37.914 29.3246 37.9969 29.4766 37.9969C29.487 37.9969 29.5008 37.9969 29.5111 37.9969C29.677 37.9831 29.8152 37.8691 29.8636 37.7102L34.9498 20.9411L39.8493 32.4302H33.9788C33.7542 32.4302 33.5711 32.6132 33.5711 32.8376V34.2639C33.5711 34.4883 33.7542 34.6713 33.9788 34.6713H42.6274C42.852 34.6713 43.0351 34.4883 43.0351 34.2639C43.0351 34.1879 43.0144 34.1154 42.9764 34.0532L42.9867 34.0567Z" fill="white"></path><path d="M35.0392 15.4227C34.9736 15.2639 34.8112 15.1672 34.6419 15.1741C34.4691 15.1844 34.324 15.2984 34.2756 15.4642L29.0478 32.703L23.0114 20.8513L21.8401 18.3304C21.7951 18.2337 21.6984 18.1715 21.5913 18.1681C21.4876 18.1577 21.3874 18.2233 21.339 18.32C21.339 18.32 20.2057 20.5163 20.2023 20.5198L20.0571 20.8064L19.3108 22.2533C19.3004 22.274 19.2935 22.2948 19.2866 22.3155L13.9966 32.703L8.76873 15.4642C8.72036 15.3018 8.57178 15.1844 8.40247 15.1741C8.23317 15.1637 8.07422 15.2639 8.00512 15.4227L7.0791 17.5914L8.08804 20.9445L13.1742 37.7137C13.2226 37.8725 13.3608 37.9865 13.5267 38.0003C13.5405 38.0003 13.5508 38.0003 13.5612 38.0003C13.7132 38.0003 13.8549 37.914 13.924 37.7793L21.5222 22.8646L29.1203 37.7793C29.1894 37.9174 29.3311 38.0003 29.4831 38.0003C29.4935 38.0003 29.5073 38.0003 29.5177 38.0003C29.6835 37.9865 29.8218 37.8725 29.8701 37.7137L34.9563 20.9445L35.8996 17.4394L35.0427 15.4262L35.0392 15.4227Z" fill="white"></path><path d="M30.9689 20.9271L23.3915 3.69861L21.9748 0.162442C21.9368 0.0657495 21.8435 0.00359024 21.7398 0.00013695C21.6258 -0.00331634 21.5394 0.0588429 21.498 0.152082L19.7496 4.08538C19.7358 4.11646 19.7289 4.14754 19.7289 4.18207L12.3657 20.9271C12.2965 21.0825 12.3657 21.262 12.5211 21.3311L13.8272 21.9044C13.8652 21.9216 13.9067 21.9285 13.9516 21.9285C13.9896 21.9285 14.0276 21.9216 14.0622 21.9078C14.1382 21.8767 14.197 21.8215 14.2315 21.7455L21.6673 4.8382L29.103 21.749C29.1549 21.8629 29.2654 21.932 29.3829 21.932C29.4244 21.932 29.4658 21.9251 29.5073 21.9078L30.8134 21.3346C30.886 21.3035 30.9447 21.2413 30.9758 21.1653C31.0069 21.0894 31.0034 21.0065 30.9723 20.9305L30.9689 20.9271Z" fill="white"></path><path d="M60.2739 33.4726C60.8579 33.4726 61.3312 33.2412 61.7044 32.7819L62.4646 33.5658C61.8599 34.2461 61.1516 34.5845 60.3327 34.5845C59.5138 34.5845 58.84 34.3255 58.3113 33.811C57.7827 33.293 57.5166 32.6438 57.5166 31.853C57.5166 31.0622 57.7861 30.4095 58.3251 29.8811C58.8642 29.3562 59.5241 29.0903 60.305 29.0903C61.1757 29.0903 61.9048 29.4218 62.4957 30.0849L61.7597 30.9206C61.3831 30.4544 60.9166 30.223 60.3603 30.223C59.9146 30.223 59.531 30.3681 59.2166 30.6616C58.8987 30.9517 58.7432 31.3453 58.7432 31.8392C58.7432 32.333 58.8918 32.7301 59.1924 33.0271C59.493 33.3275 59.8524 33.476 60.2808 33.476L60.2739 33.4726Z" fill="white"></path><path d="M69.2747 33.7868C68.7391 34.3117 68.0757 34.5742 67.2913 34.5742C66.507 34.5742 65.8436 34.3117 65.308 33.7868C64.7724 33.2619 64.5029 32.6093 64.5029 31.8323C64.5029 31.0553 64.7724 30.3992 65.308 29.8743C65.847 29.3494 66.507 29.0869 67.2913 29.0869C68.0757 29.0869 68.7391 29.3494 69.2747 29.8743C69.8102 30.3992 70.0798 31.0518 70.0798 31.8323C70.0798 32.6127 69.8102 33.2654 69.2747 33.7868ZM68.8739 31.8357C68.8739 31.3626 68.7218 30.9586 68.4178 30.6236C68.1137 30.2887 67.7405 30.1229 67.2948 30.1229C66.8491 30.1229 66.4759 30.2887 66.1718 30.6236C65.8678 30.9586 65.7157 31.3626 65.7157 31.8357C65.7157 32.3088 65.8678 32.7129 66.1718 33.0444C66.4759 33.3759 66.8491 33.5417 67.2948 33.5417C67.7405 33.5417 68.1137 33.3759 68.4178 33.0444C68.7218 32.7129 68.8739 32.3088 68.8739 31.8357Z" fill="white"></path><path d="M76.3234 29.208H77.5085V34.5192H76.3234L73.7906 31.1902V34.5192H72.6055V29.208H73.7146L76.3234 32.6268V29.208Z" fill="white"></path><path d="M81.583 30.2679C81.4689 30.3612 81.4137 30.4855 81.4137 30.6409C81.4137 30.7963 81.4828 30.9172 81.621 31.0104C81.7592 31.1036 82.0805 31.2107 82.585 31.335C83.0895 31.4593 83.4799 31.6458 83.7598 31.8944C84.0397 32.1431 84.1779 32.5057 84.1779 32.9822C84.1779 33.4588 83.9982 33.8455 83.6423 34.1391C83.2864 34.4361 82.813 34.5846 82.2326 34.5846C81.3895 34.5846 80.6328 34.2738 79.959 33.6487L80.6673 32.7819C81.2409 33.2827 81.7695 33.5348 82.2567 33.5348C82.4744 33.5348 82.6472 33.4899 82.7716 33.3932C82.896 33.2999 82.9582 33.1722 82.9582 33.0133C82.9582 32.8545 82.8925 32.7267 82.7612 32.6334C82.6299 32.5402 82.3673 32.4435 81.9769 32.3468C81.3584 32.2018 80.9057 32.0084 80.6189 31.7736C80.3322 31.5387 80.1905 31.1692 80.1905 30.6651C80.1905 30.1609 80.3702 29.7741 80.733 29.4979C81.0958 29.225 81.5484 29.0869 82.0909 29.0869C82.4468 29.0869 82.7992 29.1491 83.1551 29.2699C83.511 29.3908 83.8185 29.5635 84.0811 29.7879L83.4799 30.6547C83.0169 30.3059 82.5435 30.1298 82.0494 30.1298C81.8525 30.1298 81.697 30.1782 81.583 30.2714V30.2679Z" fill="white"></path><path d="M88.9143 30.2336V34.5192H87.7292V30.2336H86.2227V29.208H90.4208V30.2336H88.9143Z" fill="white"></path><path d="M97.1179 30.9726C97.1179 31.8221 96.7792 32.3747 96.1055 32.6199L97.4496 34.5192H95.9914L94.8132 32.8236H93.9908V34.5192H92.8057V29.208H94.8201C95.6459 29.208 96.2333 29.3461 96.5857 29.6259C96.9382 29.9056 97.1144 30.351 97.1144 30.9692L97.1179 30.9726ZM95.6874 31.6011C95.8325 31.4699 95.9085 31.2593 95.9085 30.9761C95.9085 30.6929 95.8325 30.4926 95.6805 30.3856C95.5284 30.2785 95.2624 30.2267 94.8823 30.2267H93.9908V31.798H94.8581C95.2624 31.798 95.5388 31.7324 95.6874 31.6011Z" fill="white"></path><path d="M101.261 33.1482C101.458 33.3934 101.724 33.5177 102.059 33.5177C102.394 33.5177 102.657 33.3934 102.854 33.1482C103.047 32.903 103.147 32.5681 103.147 32.1399V29.208H104.332V32.1778C104.332 32.9479 104.118 33.5384 103.693 33.9528C103.268 34.3672 102.722 34.571 102.059 34.571C101.395 34.571 100.849 34.3638 100.421 33.9494C99.9926 33.535 99.7783 32.9445 99.7783 32.1778V29.208H100.963V32.1399C100.963 32.5646 101.064 32.8996 101.261 33.1482Z" fill="white"></path><path d="M109.522 33.4726C110.106 33.4726 110.583 33.2412 110.952 32.7819L111.713 33.5658C111.108 34.2461 110.4 34.5845 109.581 34.5845C108.762 34.5845 108.088 34.3255 107.559 33.811C107.031 33.293 106.765 32.6438 106.765 31.853C106.765 31.0622 107.034 30.4095 107.573 29.8811C108.112 29.3562 108.772 29.0903 109.553 29.0903C110.424 29.0903 111.153 29.4218 111.744 30.0849L111.008 30.9206C110.631 30.4544 110.165 30.223 109.608 30.223C109.163 30.223 108.783 30.3681 108.465 30.6616C108.147 30.9517 107.988 31.3453 107.988 31.8392C107.988 32.333 108.136 32.7301 108.437 33.0271C108.738 33.3275 109.097 33.476 109.525 33.476L109.522 33.4726Z" fill="white"></path><path d="M116.419 30.2336V34.5192H115.234V30.2336H113.728V29.208H117.922V30.2336H116.416H116.419Z" fill="white"></path><path d="M120.31 29.208H121.495V34.5192H120.31V29.208Z" fill="white"></path><path d="M128.792 33.7868C128.257 34.3117 127.593 34.5742 126.809 34.5742C126.025 34.5742 125.361 34.3117 124.826 33.7868C124.287 33.2619 124.021 32.6093 124.021 31.8323C124.021 31.0553 124.29 30.3992 124.826 29.8743C125.361 29.3494 126.025 29.0869 126.809 29.0869C127.593 29.0869 128.257 29.3494 128.792 29.8743C129.328 30.3992 129.597 31.0518 129.597 31.8323C129.597 32.6127 129.328 33.2654 128.792 33.7868ZM128.391 31.8357C128.391 31.3626 128.239 30.9586 127.935 30.6236C127.631 30.2887 127.258 30.1229 126.816 30.1229C126.374 30.1229 125.997 30.2887 125.696 30.6236C125.392 30.9586 125.24 31.3626 125.24 31.8357C125.24 32.3088 125.392 32.7129 125.696 33.0444C126 33.3759 126.374 33.5417 126.816 33.5417C127.258 33.5417 127.635 33.3759 127.935 33.0444C128.239 32.7129 128.391 32.3088 128.391 31.8357Z" fill="white"></path><path d="M135.841 29.208H137.026V34.5192H135.841L133.308 31.1902V34.5192H132.123V29.208H133.232L135.841 32.6268V29.208Z" fill="white"></path></g><defs><clipPath id="clip0_12776_258"><rect width="148" height="38" fill="white"></rect></clipPath></defs></svg>